<?xml version="1.0" encoding="iso-8859-1"?>
<!-- Generator: Adobe Illustrator 16.0.0, SVG Export Plug-In . SVG Version: 6.00 Build 0)  -->
<!DOCTYPE svg PUBLIC "-//W3C//DTD SVG 1.1//EN" "http://www.w3.org/Graphics/SVG/1.1/DTD/svg11.dtd">
<svg version="1.1" id="Capa_1" xmlns="http://www.w3.org/2000/svg" xmlns:xlink="http://www.w3.org/1999/xlink" x="0px" y="0px"
	 width="537.6px" height="537.6px" viewBox="0 0 537.6 537.6" style="enable-background:new 0 0 537.6 537.6;" xml:space="preserve"
	>
<g>
	<path d="M379.68,362.88c-11.872,20.384-25.76,37.632-43.904,47.04c-37.631,19.376-65.744,35.056-65.744,35.056l-70.783-35.056
		c-18.48-9.521-31.472-28.896-38.976-47.936c-56.784,22.287-110.096,75.487-110.096,121.743V537.6h437.248c0,0,0-5.712,0-53.872
		C487.424,438.032,435.344,385.615,379.68,362.88z M155.568,297.023c16.24,53.312,57.904,108.528,114.24,108.528
		s98.112-55.216,114.24-108.528c13.888-4.815,25.536-18.703,30.016-36.624c5.376-21.616-1.008-41.888-14.672-51.184
		c-4.815-61.824-43.12-112.224-97.664-125.44L274.736,0h-13.553l-26.32,84.224c-49.728,16.576-90.048,66.864-94.64,124.992
		c-13.664,9.296-20.048,29.568-14.672,51.184C130.144,278.32,141.68,292.208,155.568,297.023z M375.2,279.775l-6.272,0.784
		l-1.68,6.048c-4.704,17.137-12.32,34.385-22.064,49.504c-18.592,28.785-45.248,50.4-75.376,50.4s-56.784-21.615-75.376-50.4
		c-9.856-15.231-17.472-32.367-22.064-49.504l-1.68-6.048l-6.16-0.784c-7.392-1.008-16.912-9.52-20.496-23.968
		c-3.808-15.12,1.008-30.352,10.416-32.704c0.56-0.112,1.232-0.224,2.016-0.224c0.56,0,1.008,0,1.568,0.112l8.848,0.784l1.344-8.848
		c8.96-60.368,49.84-100.912,101.696-100.912c51.855,0,92.624,40.544,101.696,100.912l1.344,8.848l8.848-0.784
		c1.344-0.112,2.688-0.112,3.584,0.112c9.296,2.352,14.112,17.584,10.416,32.704C392.112,270.256,382.704,278.768,375.2,279.775z"/>
</g>
<g>
</g>
<g>
</g>
<g>
</g>
<g>
</g>
<g>
</g>
<g>
</g>
<g>
</g>
<g>
</g>
<g>
</g>
<g>
</g>
<g>
</g>
<g>
</g>
<g>
</g>
<g>
</g>
<g>
</g>
</svg>
